<?xml version="1.0" encoding="UTF-8"?>
<!DOCTYPE svg PUBLIC "-//W3C//DTD SVG 1.1//EN" "http://www.w3.org/Graphics/SVG/1.1/DTD/svg11.dtd">
<!-- Creator: CorelDRAW -->
<svg xmlns="http://www.w3.org/2000/svg" xml:space="preserve" width="25.2388cm" height="19.4152cm" version="1.1" style="shape-rendering:geometricPrecision; text-rendering:geometricPrecision; image-rendering:optimizeQuality; fill-rule:evenodd; clip-rule:evenodd"
viewBox="0 0 2873.05 2210.13"
 xmlns:xlink="http://www.w3.org/1999/xlink"
 xmlns:xodm="http://www.corel.com/coreldraw/odm/2003">
 <defs>
  <style type="text/css">
   <![CDATA[
    .fil0 {fill:url(#id0)}
    .fil1 {fill:url(#id1);fill-rule:nonzero}
   ]]>
  </style>
  <linearGradient id="id0" gradientUnits="userSpaceOnUse" x1="2817.05" y1="-53.41" x2="904.51" y2="2429.41">
   <stop offset="0" style="stop-opacity:1; stop-color:#4C5DFF"/>
   <stop offset="0.701961" style="stop-opacity:1; stop-color:#1B073B"/>
   <stop offset="1" style="stop-opacity:1; stop-color:black"/>
  </linearGradient>
  <linearGradient id="id1" gradientUnits="userSpaceOnUse" x1="1559.14" y1="1508.18" x2="2791.38" y2="328.56">
   <stop offset="0" style="stop-opacity:1; stop-color:#1B073B"/>
   <stop offset="1" style="stop-opacity:1; stop-color:#4C5D85"/>
  </linearGradient>
 </defs>
 <g id="PowerClip_x0020_Contents">
  <metadata id="CorelCorpID_0Corel-Layer"/>
  <g id="_105553307866368">
   <path class="fil0" d="M416.46 940.32c-89.31,-34.14 -123.65,-76.85 -116.69,-148.01 6.84,-74.05 51.51,-125.2 123.65,-165.12 30.85,-14.24 61.84,-25.58 99.52,-31.37 -20.65,25.58 -34.34,48.38 -41.18,74.06 -6.84,34.14 0,65.5 13.68,93.95 13.69,31.37 34.34,62.61 41.18,96.75 13.69,76.84 -20.65,136.66 -96.15,182.14 -37.83,22.8 -79.01,34.14 -123.65,45.6 -44.67,11.34 -89.32,22.79 -127,45.59 -17.17,11.34 -34.34,22.8 -41.18,39.81 -24.01,42.7 6.84,82.51 61.83,85.41 48.01,0 89.33,-14.24 133.86,-28.47 120.16,-37.03 233.5,-79.73 357,-110.98 79,-19.91 157.99,-34.14 247.18,-39.81 -157.99,108.19 -240.34,247.64 -312.49,395.62 65.18,-45.6 127.01,-96.75 182,-150.9 161.33,-159.45 305.52,-330.26 453.17,-498.15 17.17,-19.9 34.34,-37.03 51.51,-54.04 -6.84,37.03 -13.68,74.05 -10.33,113.86 13.68,82.51 68.68,142.33 154.5,182.14 65.18,28.47 130.49,51.27 188.83,88.29 127.01,76.84 209.5,176.47 230.01,307.46 13.69,79.72 -3.48,159.46 -37.82,236.29 -24.01,56.94 -55,110.98 -65.18,170.8 -20.66,93.96 3.49,185.03 54.99,267.53 13.69,22.8 27.5,42.7 41.18,65.5l-223.17 -0.01c-10.33,0 -13.67,-5.67 -13.67,-11.34 -44.67,-99.63 -78.99,-202.16 -92.68,-307.46 -6.84,-51.27 -3.48,-105.3 -6.84,-156.56 -6.84,-102.53 -48.01,-193.6 -120.16,-276.1 -30.84,-34.14 -61.84,-65.5 -85.84,-99.63 -68.67,-88.29 -78.99,-179.36 -37.82,-278.99l0 -8.56c-6.85,2.89 -10.33,8.56 -13.69,11.34 -75.5,108.19 -79,219.17 -17.17,330.25 30.85,54.05 72.16,99.63 106.49,153.68 30.84,51.26 51.51,102.52 54.99,159.45 0,8.57 3.49,14.24 -13.67,11.34 -188.83,-54.04 -353.67,-11.34 -504.68,82.52 -24.01,14.23 -44.66,31.36 -61.83,48.37 -61.84,56.94 -75.51,119.53 -34.34,187.93 27.5,42.7 54.99,88.28 82.35,130.99 3.49,5.67 6.84,11.34 10.33,19.9l-182 -0.01c-13.69,0 -13.69,-11.34 -17.17,-17.13 -44.67,-88.29 -92.68,-176.47 -137.34,-264.76 -10.33,-17.12 -17.17,-37.03 -27.49,-54.04 -6.85,-8.56 -3.49,-14.23 10.32,-19.9 109.85,-51.27 202.52,-119.54 261,-210.61 44.67,-71.17 55,-145.23 41.18,-224.84 -6.84,8.56 -6.84,14.23 -10.33,22.8 -3.49,8.56 -3.49,14.23 -6.84,22.79 -48.01,139.44 -147.66,241.97 -302.16,310.22 -41.18,17.13 -79.01,34.14 -120.17,54.04 -164.83,82.51 -230.01,207.83 -192.33,364.39 6.84,22.8 6.84,22.8 -24.01,22.8l-178.52 0c-17.17,0 -20.66,-2.9 -13.69,-17.13 27.5,-99.63 65.18,-196.38 96.16,-293.23 20.66,-62.61 41.18,-122.43 58.34,-185.03 3.49,-8.57 3.49,-14.24 13.68,-19.91 89.31,-48.37 133.86,-116.75 147.66,-202.16 6.84,-37.03 6.84,-71.17 0,-108.19 -3.49,-14.23 -3.49,-22.8 -27.5,-17.13 -48.01,14.24 -99.52,19.91 -151,8.57 -133.86,-28.47 -188.83,-156.57 -106.48,-256.2 41.18,-48.37 99.51,-79.72 168.17,-96.74 44.67,-14.24 92.68,-25.58 140.82,-39.81 30.84,-8.67 54.85,-20.01 68.67,-39.92l0.01 0.03z"/>
   <path class="fil1" d="M2318.5 15.18c-75.51,14.23 -147.67,31.36 -216.33,62.61 -34.34,14.23 -65.18,31.36 -92.68,54.04 -20.65,17.13 -37.82,39.82 -24.01,65.5 10.33,25.58 37.82,34.14 65.18,34.14 65.19,0 130.49,2.89 195.66,2.89 85.84,0 164.83,22.8 236.86,65.5 61.72,40.77 267.36,25.76 288.38,-79.72 6.82,-48.37 -3.5,-96.74 -20.67,-142.33 0,-2.89 -3.49,-8.56 -6.84,-14.23 24.01,17.11 41.18,31.35 58.34,48.37 48.01,54.04 79.01,110.98 68.66,179.36 -13.69,82.51 -92.68,145.22 -192.33,150.91 -10.32,0 -20.65,2.88 -30.84,2.88 27.51,39.8 61.85,74.05 92.68,110.97 17.17,17.14 30.84,37.04 48.01,54.07 6.84,8.54 6.84,14.23 0,22.77 -27.5,31.37 -55,65.51 -82.35,99.63 -174.06,41.51 -329.15,29.83 -422.35,-11.21 -96.15,-39.82 -168.17,-99.62 -192.34,-190.69 -10.31,-37.05 -6.83,-74.07 10.34,-108.2 3.49,-5.69 6.83,-11.35 3.49,-19.92 -55,59.82 -82.35,125.21 -61.84,199.26 30.83,111 120.16,182.15 240.34,227.74 37.83,14.24 75.51,22.8 116.69,28.47 17.17,2.89 24,5.66 30.85,19.89 68.64,156.57 68.64,316.04 3.48,472.6 -3.48,8.57 -6.84,14.24 0,22.8 47.99,74.06 65.16,156.57 68.66,239.07 3.49,56.94 -3.5,116.75 -10.32,173.69 -13.69,148 44.66,281.77 137.32,404.18 3.5,5.67 10.34,11.34 10.34,19.91l-195.69 -0.07c-13.68,0 -17.18,-8.54 -17.18,-17.12 -34.34,-76.84 -65.17,-150.89 -109.85,-224.83 -37.81,-65.51 -85.81,-128.12 -150.99,-176.49 -44.67,-31.35 -96.15,-54.03 -157.99,-56.92 13.69,-14.23 30.85,-22.81 44.67,-34.16 127,-93.95 223.17,-202.15 274.68,-335.9 54.99,-142.33 41.17,-281.77 -51.51,-415.67 -6.84,-8.56 -10.33,-14.23 -17.17,-19.9 0,0 -3.49,-2.89 -6.84,-5.67 58.34,153.67 68.68,301.79 -17.17,449.78 0,-22.78 3.49,-42.68 0,-65.49 -10.33,-133.76 -72.15,-247.64 -178.5,-347.25 -58.34,-54.06 -127.01,-99.65 -185.33,-153.68 -58.34,-54.04 -109.85,-110.98 -130.51,-185.03 -3.49,-8.58 -3.49,-14.24 -6.83,-22.81 -6.86,42.7 3.48,85.41 20.65,128.12 24.01,56.91 65.16,108.19 109.84,153.66 61.84,59.82 130.5,116.75 178.49,185.03 133.86,185.03 133.86,367.15 -3.47,549.43 0,2.88 -3.49,2.88 -6.83,5.66 3.48,-22.8 6.83,-42.7 10.3,-62.61 34.49,-242.17 -109.69,-455.68 -367.17,-563.88 -48.03,-19.9 -99.54,-39.8 -144.2,-68.27 -96.15,-62.61 -123.63,-145.23 -99.5,-241.97 24.01,-105.3 96.15,-190.71 188.83,-264.76 20.65,-17.13 41.18,-31.36 61.83,-45.6 10.33,-8.56 17.17,-8.56 27.5,2.9 41.18,39.81 89.32,71.17 151.01,79.72 75.5,11.34 154.5,-11.34 202.5,-62.61 -37.82,0 -75.51,2.9 -109.85,-5.67 -75.51,-11.32 -133.86,-42.7 -178.49,-96.74 -48.01,-62.61 -37.83,-136.66 27.5,-187.93 54.99,-42.7 126.99,-65.5 199.17,-82.51 92.67,-19.9 188.83,-25.57 288.35,-17.13 10.18,8.45 20.52,8.45 27.35,11.34l-0.02 0.06zm127.01 495.25c6.84,-113.85 -55.01,-142.33 -171.67,-110.97 72.15,19.89 133.98,51.14 171.67,110.97z"/>
  </g>
 </g>
</svg>
