<?xml version="1.0" encoding="UTF-8"?>
<!DOCTYPE svg PUBLIC "-//W3C//DTD SVG 1.1//EN" "http://www.w3.org/Graphics/SVG/1.1/DTD/svg11.dtd">
<!-- Creator: CorelDRAW -->
<svg xmlns="http://www.w3.org/2000/svg" xml:space="preserve" width="3.49911cm" height="3.49911cm" version="1.1" style="shape-rendering:geometricPrecision; text-rendering:geometricPrecision; image-rendering:optimizeQuality; fill-rule:evenodd; clip-rule:evenodd"
viewBox="0 0 166.05 166.05"
 xmlns:xlink="http://www.w3.org/1999/xlink"
 xmlns:xodm="http://www.corel.com/coreldraw/odm/2003">
 <defs>
  <style type="text/css">
   <![CDATA[
    .str0 {stroke:#5ABA87;stroke-width:3.35;stroke-miterlimit:22.9256}
    .fil1 {fill:none}
    .fil0 {fill:#5ABA87}
    .fil2 {fill:white;fill-rule:nonzero}
   ]]>
  </style>
 </defs>
 <g id="Layer_x0020_1">
  <metadata id="CorelCorpID_0Corel-Layer"/>
  <g id="_105553312383264">
   <circle class="fil0" cx="83.02" cy="83.03" r="73.83"/>
   <circle class="fil1 str0" cx="83.02" cy="83.02" r="81.35"/>
   <g>
    <path class="fil2" d="M115.12 46.35l-50.43 0c-2.53,0 -4.59,2.05 -4.59,4.59l0 6.88 -9.17 0c-2.53,0 -4.58,2.05 -4.58,4.58l0 34.39c0,2.53 2.05,4.59 4.58,4.59l8.02 0c0.63,0 1.15,0.51 1.15,1.15l0 12.61c0,1.85 1.12,3.53 2.83,4.24 0.57,0.24 1.16,0.35 1.75,0.35 1.19,0 2.36,-0.47 3.24,-1.34l16.23 -16.23c0,0 0.59,-0.77 1.92,-0.77 1.32,0 17.59,0 17.59,0 2.53,0 4.59,-2.05 4.59,-4.59l0 -9.17 6.88 0c2.53,0 4.59,-2.05 4.59,-4.59l0 -32.09c0,-2.53 -2.05,-4.59 -4.59,-4.59zm-9.17 50.43c0,1.27 -1.03,2.29 -2.29,2.29 0,0 -16.83,0 -17.59,0 -2.23,0 -3.04,1.15 -3.04,1.15 0,0 -13.75,13.75 -16.05,16.05 -2.45,2.45 -4.58,0.45 -4.58,-1.15 0,-1.15 0,-13.75 0,-13.75 0,-1.27 -1.03,-2.29 -2.29,-2.29l-9.17 0c-1.27,0 -2.29,-1.03 -2.29,-2.29l0 -34.39c0,-1.27 1.03,-2.29 2.29,-2.29l52.73 0c1.27,0 2.29,1.03 2.29,2.29l0 34.39zm11.46 -13.75c0,1.27 -1.03,2.29 -2.29,2.29l-6.88 0 0 -22.92c0,-2.53 -2.05,-4.59 -4.59,-4.59l-41.26 0 0 -6.88c0,-1.27 1.03,-2.29 2.29,-2.29l50.43 0c1.27,0 2.29,1.03 2.29,2.29l0 32.09z"/>
    <path class="fil2" d="M61.25 73.85l14.9 0c0.63,0 1.15,-0.51 1.15,-1.15 0,-0.63 -0.51,-1.15 -1.15,-1.15l-14.9 0c-0.63,0 -1.15,0.51 -1.15,1.15 0,0.63 0.51,1.15 1.15,1.15z"/>
    <path class="fil2" d="M93.34 78.44l-32.09 0c-0.63,0 -1.15,0.51 -1.15,1.15 0,0.63 0.51,1.15 1.15,1.15l32.09 0c0.63,0 1.15,-0.51 1.15,-1.15 0,-0.63 -0.51,-1.15 -1.15,-1.15z"/>
    <path class="fil2" d="M85.32 85.32l-24.07 0c-0.63,0 -1.15,0.51 -1.15,1.15 0,0.63 0.51,1.15 1.15,1.15l24.07 0c0.63,0 1.15,-0.51 1.15,-1.15 0,-0.63 -0.51,-1.15 -1.15,-1.15z"/>
   </g>
  </g>
 </g>
</svg>
