<?xml version="1.0" encoding="UTF-8"?>
<!DOCTYPE svg PUBLIC "-//W3C//DTD SVG 1.1//EN" "http://www.w3.org/Graphics/SVG/1.1/DTD/svg11.dtd">
<!-- Creator: CorelDRAW -->
<svg xmlns="http://www.w3.org/2000/svg" xml:space="preserve" width="3.49911cm" height="3.49911cm" version="1.1" style="shape-rendering:geometricPrecision; text-rendering:geometricPrecision; image-rendering:optimizeQuality; fill-rule:evenodd; clip-rule:evenodd"
viewBox="0 0 113.53 113.53"
 xmlns:xlink="http://www.w3.org/1999/xlink"
 xmlns:xodm="http://www.corel.com/coreldraw/odm/2003">
 <defs>
  <style type="text/css">
   <![CDATA[
    .str0 {stroke:#605DFF;stroke-width:2.29;stroke-miterlimit:22.9256}
    .fil0 {fill:none}
    .fil1 {fill:#605DFF}
    .fil2 {fill:white;fill-rule:nonzero}
   ]]>
  </style>
 </defs>
 <g id="Layer_x0020_1">
  <metadata id="CorelCorpID_0Corel-Layer"/>
  <g id="_105553312530560">
   <circle class="fil0 str0" cx="56.76" cy="56.76" r="55.62"/>
   <circle class="fil1" cx="56.76" cy="56.76" r="50.48"/>
   <g>
    <path class="fil2" d="M78.71 34.82l-19.59 0 0 -0.78c0,-1.3 -1.05,-2.35 -2.35,-2.35 -1.3,0 -2.35,1.05 -2.35,2.35l0 0.78 -19.59 0c-1.73,0 -3.13,1.4 -3.13,3.13l0 29.78c0,1.73 1.4,3.13 3.13,3.13l15.59 0 -4.3 7.45c-0.65,1.12 -0.26,2.56 0.86,3.21 1.13,0.65 2.56,0.26 3.21,-0.86l5.66 -9.8 1.86 0 5.66 9.8c0.65,1.13 2.09,1.51 3.21,0.86 1.13,-0.65 1.51,-2.09 0.86,-3.21l-4.3 -7.45 15.58 0c1.73,0 3.13,-1.4 3.13,-3.13l0 -29.78c0,-1.73 -1.4,-3.13 -3.13,-3.13zm-22.73 -0.78c0,-0.43 0.35,-0.78 0.78,-0.78 0.43,0 0.78,0.35 0.78,0.78l0 0.78 -1.57 0 0 -0.78zm-7.16 45.85c-0.22,0.38 -0.7,0.5 -1.07,0.29 -0.38,-0.22 -0.5,-0.69 -0.29,-1.07l4.75 -8.23 1.81 0 -5.2 9.01zm17.24 -0.78c0.22,0.38 0.09,0.85 -0.29,1.07 -0.37,0.22 -0.85,0.09 -1.07,-0.29l-5.2 -9.01 1.81 0 4.75 8.23zm14.21 -11.36c0,0.86 -0.7,1.57 -1.57,1.57l-43.89 0c-0.87,0 -1.57,-0.7 -1.57,-1.57l0 -29.78c0,-0.87 0.7,-1.57 1.57,-1.57l43.89 0c0.86,0 1.57,0.7 1.57,1.57l0 29.78z"/>
    <path class="fil2" d="M59.12 45.79l-4.7 0c-0.43,0 -0.78,0.35 -0.78,0.78l0 19.59 6.27 0 0 -19.59c0,-0.43 -0.35,-0.78 -0.78,-0.78zm-0.78 18.81l-3.13 0 0 -6.27 3.13 0 0 6.27zm0 -7.84l-3.13 0 0 -9.4 3.13 0 0 9.4z"/>
    <path class="fil2" d="M68.52 39.52l-4.7 0c-0.43,0 -0.78,0.35 -0.78,0.78l0 25.86 6.27 0 0 -25.86c0,-0.43 -0.35,-0.78 -0.78,-0.78zm-0.78 25.08l-3.13 0 0 -7.84 3.13 0 0 7.84zm0 -9.4l-3.13 0 0 -14.11 3.13 0 0 14.11z"/>
    <path class="fil2" d="M49.71 52.06l-4.7 0c-0.43,0 -0.78,0.35 -0.78,0.78l0 13.32 6.27 0 0 -13.32c0,-0.43 -0.35,-0.78 -0.78,-0.78zm-0.78 12.54l-3.13 0 0 -4.7 3.13 0 0 4.7zm0 -6.27l-3.13 0 0 -4.7 3.13 0 0 4.7z"/>
   </g>
  </g>
 </g>
</svg>
