<?xml version="1.0" encoding="UTF-8"?>
<!DOCTYPE svg PUBLIC "-//W3C//DTD SVG 1.1//EN" "http://www.w3.org/Graphics/SVG/1.1/DTD/svg11.dtd">
<!-- Creator: CorelDRAW -->
<svg xmlns="http://www.w3.org/2000/svg" xml:space="preserve" width="3.49911cm" height="3.49911cm" version="1.1" style="shape-rendering:geometricPrecision; text-rendering:geometricPrecision; image-rendering:optimizeQuality; fill-rule:evenodd; clip-rule:evenodd"
viewBox="0 0 165.6 165.6"
 xmlns:xlink="http://www.w3.org/1999/xlink"
 xmlns:xodm="http://www.corel.com/coreldraw/odm/2003">
 <defs>
  <style type="text/css">
   <![CDATA[
    .str0 {stroke:#B49FFF;stroke-width:3.34;stroke-miterlimit:22.9256}
    .fil0 {fill:none}
    .fil1 {fill:#B49FFF}
    .fil2 {fill:white;fill-rule:nonzero}
   ]]>
  </style>
 </defs>
 <g id="Layer_x0020_1">
  <metadata id="CorelCorpID_0Corel-Layer"/>
  <g id="_105553312668832">
   <circle class="fil0 str0" cx="82.8" cy="82.8" r="81.13"/>
   <circle class="fil1" cx="82.8" cy="82.8" r="73.63"/>
   <path class="fil2" d="M115.86 45.02l-66.11 0c-2.61,0 -4.72,2.11 -4.72,4.72l0 66.12c0,2.61 2.11,4.72 4.72,4.72l66.11 0c2.61,0 4.72,-2.11 4.72,-4.72l0 -66.12c0,-2.61 -2.11,-4.72 -4.72,-4.72zm-66.11 2.36l66.11 0c1.3,0 2.36,1.06 2.36,2.36l0 25.3 -13.47 7.93c-1.3,-1.55 -3.24,-2.53 -5.42,-2.53 -2.13,0 -4.03,0.94 -5.32,2.42l-18.81 -11.57c0.33,-0.82 0.52,-1.71 0.52,-2.65 0,-3.91 -3.17,-7.08 -7.08,-7.08 -3.91,0 -7.08,3.17 -7.08,7.08 0,1.53 0.49,2.94 1.31,4.1l-15.48 15.48 0 -38.47c0,-1.3 1.06,-2.36 2.36,-2.36zm49.59 35.42c2.61,0 4.72,2.11 4.72,4.72 0,2.61 -2.11,4.72 -4.72,4.72 -2.61,0 -4.72,-2.11 -4.72,-4.72 0,-2.61 2.11,-4.72 4.72,-4.72zm-35.42 -14.17c0,-2.61 2.11,-4.72 4.72,-4.72 2.61,0 4.72,2.11 4.72,4.72 0,2.61 -2.11,4.72 -4.72,4.72 -2.61,0 -4.72,-2.11 -4.72,-4.72zm51.95 49.59l-66.11 0c-1.3,0 -2.36,-1.06 -2.36,-2.36l0 -24.3 17.15 -17.15c1.16,0.83 2.57,1.31 4.1,1.31 2.13,0 4.03,-0.94 5.32,-2.42l18.81 11.57c-0.33,0.82 -0.52,1.71 -0.52,2.65 0,3.91 3.17,7.08 7.08,7.08 3.91,0 7.08,-3.17 7.08,-7.08 0,-0.89 -0.17,-1.74 -0.47,-2.52l12.27 -7.22 0 38.08c0,1.3 -1.06,2.36 -2.36,2.36z"/>
  </g>
 </g>
</svg>
