<?xml version="1.0" encoding="UTF-8"?>
<!DOCTYPE svg PUBLIC "-//W3C//DTD SVG 1.1//EN" "http://www.w3.org/Graphics/SVG/1.1/DTD/svg11.dtd">
<!-- Creator: CorelDRAW -->
<svg xmlns="http://www.w3.org/2000/svg" xml:space="preserve" width="3.49911cm" height="3.49911cm" version="1.1" style="shape-rendering:geometricPrecision; text-rendering:geometricPrecision; image-rendering:optimizeQuality; fill-rule:evenodd; clip-rule:evenodd"
viewBox="0 0 86.22 86.22"
 xmlns:xlink="http://www.w3.org/1999/xlink"
 xmlns:xodm="http://www.corel.com/coreldraw/odm/2003">
 <defs>
  <style type="text/css">
   <![CDATA[
    .str0 {stroke:#E6A55B;stroke-width:1.74;stroke-miterlimit:22.9256}
    .fil0 {fill:none}
    .fil1 {fill:#E6A55B}
    .fil2 {fill:white;fill-rule:nonzero}
   ]]>
  </style>
 </defs>
 <g id="Layer_x0020_1">
  <metadata id="CorelCorpID_0Corel-Layer"/>
  <g id="_105553312503168">
   <circle class="fil0 str0" cx="43.11" cy="43.11" r="42.24"/>
   <circle class="fil1" cx="43.11" cy="43.11" r="38.33"/>
   <path class="fil2" d="M43.11 24.06c-5.05,0 -9.63,1.97 -13.04,5.17l-0.65 -0.65 0 -1.54c0,-0.1 -0.03,-0.19 -0.07,-0.27 -0.01,-0.04 -0.03,-0.08 -0.08,-0.13l-2.4 -2.4 -0 0c-0.11,-0.11 -0.26,-0.17 -0.42,-0.17 -0.33,0 -0.6,0.27 -0.6,0.6l0 1.19 -1.19 0c-0.33,0 -0.6,0.27 -0.6,0.6 0,0.16 0.07,0.31 0.17,0.42l0 0 2.38 2.38c0,0 0,0 0,0l0.02 0.02c0.05,0.05 0.09,0.07 0.13,0.08 0.08,0.04 0.17,0.07 0.27,0.07l1.54 0 0.65 0.65c-3.2,3.41 -5.17,7.99 -5.17,13.04 0,10.52 8.53,19.04 19.04,19.04 10.52,0 19.04,-8.53 19.04,-19.04 0,-10.52 -8.53,-19.04 -19.04,-19.04zm-14.88 4.17l-0.94 0 -1.19 -1.19 0.94 -0 0.01 -0.94 1.18 1.18 0 0.94zm14.88 32.73c-9.86,0 -17.85,-7.99 -17.85,-17.85 0,-4.72 1.83,-9 4.82,-12.19l1.68 1.68c-2.56,2.76 -4.12,6.45 -4.12,10.51 0,8.55 6.93,15.47 15.47,15.47 8.55,0 15.47,-6.93 15.47,-15.47 0,-8.55 -6.93,-15.47 -15.47,-15.47 -4.06,0 -7.75,1.56 -10.51,4.12l-1.68 -1.68c3.19,-2.99 7.48,-4.82 12.19,-4.82 9.86,0 17.85,7.99 17.85,17.85 0,9.86 -7.99,17.85 -17.85,17.85zm-8.82 -25.83c-1.91,2.11 -3.09,4.9 -3.09,7.98 0,6.57 5.33,11.9 11.9,11.9 6.57,0 11.9,-5.33 11.9,-11.9 0,-6.57 -5.33,-11.9 -11.9,-11.9 -3.07,0 -5.86,1.17 -7.98,3.09l-1.69 -1.69c2.54,-2.34 5.94,-3.77 9.67,-3.77 7.89,0 14.28,6.39 14.28,14.28 0,7.89 -6.39,14.28 -14.28,14.28 -7.89,0 -14.28,-6.39 -14.28,-14.28 0,-3.73 1.43,-7.13 3.77,-9.67l1.69 1.69zm2.52 2.52c-1.27,1.46 -2.04,3.36 -2.04,5.45 0,4.6 3.73,8.33 8.33,8.33 4.6,0 8.33,-3.73 8.33,-8.33 0,-4.6 -3.73,-8.33 -8.33,-8.33 -2.09,0 -3.99,0.77 -5.45,2.04l-1.68 -1.68c1.89,-1.7 4.39,-2.74 7.13,-2.74 5.92,0 10.71,4.8 10.71,10.71 0,5.92 -4.8,10.71 -10.71,10.71 -5.92,0 -10.71,-4.8 -10.71,-10.71 0,-2.74 1.04,-5.24 2.74,-7.13l1.68 1.68zm2.53 2.53c-0.63,0.81 -1,1.82 -1,2.92 0,2.63 2.13,4.76 4.76,4.76 2.63,0 4.76,-2.13 4.76,-4.76 0,-2.63 -2.13,-4.76 -4.76,-4.76 -1.1,0 -2.11,0.38 -2.92,1l-1.69 -1.69c1.24,-1.05 2.85,-1.69 4.61,-1.69 3.94,0 7.14,3.2 7.14,7.14 0,3.94 -3.2,7.14 -7.14,7.14 -3.94,0 -7.14,-3.2 -7.14,-7.14 0,-1.76 0.64,-3.36 1.69,-4.61l1.69 1.69zm3.34 3.34c0.23,0.23 0.61,0.23 0.84,0 0.23,-0.23 0.23,-0.61 0,-0.84l-2.49 -2.49c0.58,-0.42 1.3,-0.66 2.07,-0.66 1.97,0 3.57,1.6 3.57,3.57 0,1.97 -1.6,3.57 -3.57,3.57 -1.97,0 -3.57,-1.6 -3.57,-3.57 0,-0.77 0.25,-1.48 0.66,-2.07l2.49 2.49z"/>
  </g>
 </g>
</svg>
