<?xml version="1.0" encoding="UTF-8"?>
<!DOCTYPE svg PUBLIC "-//W3C//DTD SVG 1.1//EN" "http://www.w3.org/Graphics/SVG/1.1/DTD/svg11.dtd">
<!-- Creator: CorelDRAW -->
<svg xmlns="http://www.w3.org/2000/svg" xml:space="preserve" width="3.49911cm" height="3.49911cm" version="1.1" style="shape-rendering:geometricPrecision; text-rendering:geometricPrecision; image-rendering:optimizeQuality; fill-rule:evenodd; clip-rule:evenodd"
viewBox="0 0 86.25 86.25"
 xmlns:xlink="http://www.w3.org/1999/xlink"
 xmlns:xodm="http://www.corel.com/coreldraw/odm/2003">
 <defs>
  <style type="text/css">
   <![CDATA[
    .str0 {stroke:#5AA5BA;stroke-width:1.74;stroke-miterlimit:22.9256}
    .fil0 {fill:none}
    .fil1 {fill:#5AA5BA}
    .fil2 {fill:white;fill-rule:nonzero}
   ]]>
  </style>
 </defs>
 <g id="Layer_x0020_1">
  <metadata id="CorelCorpID_0Corel-Layer"/>
  <g id="_105553312795680">
   <circle class="fil0 str0" cx="43.12" cy="43.12" r="42.25"/>
   <circle class="fil1" cx="43.12" cy="43.12" r="38.35"/>
   <g>
    <path class="fil2" d="M50.94 22.29c-3.6,0 -6.85,1.46 -9.21,3.82l-15.63 15.63c-2.36,2.36 -3.82,5.61 -3.82,9.21 0,7.19 5.83,13.02 13.02,13.02 3.6,0 6.85,-1.46 9.21,-3.82l15.63 -15.63c2.36,-2.36 3.82,-5.61 3.82,-9.21 0,-7.19 -5.83,-13.02 -13.02,-13.02zm-10.05 6.5l16.57 16.57 -12.1 12.1 -16.57 -16.57 12.1 -12.1zm-5.58 33.87c-6.46,0 -11.72,-5.26 -11.72,-11.72 0,-3.13 1.22,-6.07 3.43,-8.29l0.84 -0.84 16.57 16.57 -0.84 0.84c-2.21,2.21 -5.15,3.43 -8.29,3.43zm23.91 -19.06l-0.84 0.84 -16.57 -16.57 0.84 -0.84c2.21,-2.21 5.15,-3.43 8.29,-3.43 6.46,0 11.72,5.26 11.72,11.72 0,3.13 -1.22,6.07 -3.43,8.29z"/>
    <path class="fil2" d="M41.17 43.12c0,1.08 0.88,1.95 1.95,1.95 1.08,0 1.95,-0.88 1.95,-1.95 0,-1.08 -0.88,-1.95 -1.95,-1.95 -1.08,0 -1.95,0.88 -1.95,1.95zm2.6 0c0,0.36 -0.29,0.65 -0.65,0.65 -0.36,0 -0.65,-0.29 -0.65,-0.65 0,-0.36 0.29,-0.65 0.65,-0.65 0.36,0 0.65,0.29 0.65,0.65z"/>
    <path class="fil2" d="M41.82 37.92c1.08,0 1.95,-0.88 1.95,-1.95 0,-1.08 -0.88,-1.95 -1.95,-1.95 -1.08,0 -1.95,0.88 -1.95,1.95 0,1.08 0.88,1.95 1.95,1.95zm0 -2.6c0.36,0 0.65,0.29 0.65,0.65 0,0.36 -0.29,0.65 -0.65,0.65 -0.36,0 -0.65,-0.29 -0.65,-0.65 0,-0.36 0.29,-0.65 0.65,-0.65z"/>
    <path class="fil2" d="M42.47 50.29c0,1.08 0.88,1.95 1.95,1.95 1.08,0 1.95,-0.88 1.95,-1.95 0,-1.08 -0.88,-1.95 -1.95,-1.95 -1.08,0 -1.95,0.88 -1.95,1.95zm2.6 0c0,0.36 -0.29,0.65 -0.65,0.65 -0.36,0 -0.65,-0.29 -0.65,-0.65 0,-0.36 0.29,-0.65 0.65,-0.65 0.36,0 0.65,0.29 0.65,0.65z"/>
    <path class="fil2" d="M50.29 46.38c1.08,0 1.95,-0.88 1.95,-1.95 0,-1.08 -0.88,-1.95 -1.95,-1.95 -1.08,0 -1.95,0.88 -1.95,1.95 0,1.08 0.88,1.95 1.95,1.95zm0 -2.6c0.36,0 0.65,0.29 0.65,0.65 0,0.36 -0.29,0.65 -0.65,0.65 -0.36,0 -0.65,-0.29 -0.65,-0.65 0,-0.36 0.29,-0.65 0.65,-0.65z"/>
    <path class="fil2" d="M35.96 43.78c1.08,0 1.95,-0.88 1.95,-1.95 0,-1.08 -0.88,-1.95 -1.95,-1.95 -1.08,0 -1.95,0.88 -1.95,1.95 0,1.08 0.88,1.95 1.95,1.95zm0 -2.6c0.36,0 0.65,0.29 0.65,0.65 0,0.36 -0.29,0.65 -0.65,0.65 -0.36,0 -0.65,-0.29 -0.65,-0.65 0,-0.36 0.29,-0.65 0.65,-0.65z"/>
   </g>
  </g>
 </g>
</svg>
