<?xml version="1.0" encoding="UTF-8"?>
<!DOCTYPE svg PUBLIC "-//W3C//DTD SVG 1.1//EN" "http://www.w3.org/Graphics/SVG/1.1/DTD/svg11.dtd">
<!-- Creator: CorelDRAW -->
<svg xmlns="http://www.w3.org/2000/svg" xml:space="preserve" width="3.49911cm" height="3.49911cm" version="1.1" style="shape-rendering:geometricPrecision; text-rendering:geometricPrecision; image-rendering:optimizeQuality; fill-rule:evenodd; clip-rule:evenodd"
viewBox="0 0 113.63 113.63"
 xmlns:xlink="http://www.w3.org/1999/xlink"
 xmlns:xodm="http://www.corel.com/coreldraw/odm/2003">
 <defs>
  <style type="text/css">
   <![CDATA[
    .str0 {stroke:#E65BB8;stroke-width:2.29;stroke-miterlimit:22.9256}
    .fil0 {fill:none}
    .fil1 {fill:#E65BB8}
    .fil2 {fill:white;fill-rule:nonzero}
   ]]>
  </style>
 </defs>
 <g id="Layer_x0020_1">
  <metadata id="CorelCorpID_0Corel-Layer"/>
  <g id="_105553312621120">
   <circle class="fil0 str0" cx="56.82" cy="56.82" r="55.67"/>
   <circle class="fil1" cx="56.81" cy="56.82" r="50.52"/>
   <g>
    <g>
     <path class="fil2" d="M60.36 72.69l0.01 -0.01c-1.99,-1.62 -4.22,-2.99 -6.66,-4.08 -0.56,-1.76 -0.87,-3.64 -0.87,-5.59l0 -9.83c0,-5.43 -4.4,-9.83 -9.83,-9.83l-2.46 0c-5.43,0 -9.83,4.4 -9.83,9.83l0 9.83c0,1.95 -0.31,3.82 -0.87,5.59 -2.44,1.07 -4.62,2.43 -6.66,4.08l0.01 0.01c-0.67,0.67 -1.08,1.59 -1.08,2.61l0 4.91c0,1.36 1.1,2.46 2.46,2.46l34.39 0c1.36,0 2.46,-1.1 2.46,-2.46l0 -4.91c0,-1.02 -0.41,-1.94 -1.08,-2.61zm-28.4 -9.68l0 -9.83c0,-4.75 3.85,-8.6 8.6,-8.6l2.46 0c4.75,0 8.6,3.85 8.6,8.6l0 9.83c0,1.72 0.23,3.39 0.65,4.98 -1.7,-0.65 -3.51,-1.16 -5.4,-1.51 1.99,-2.15 3.52,-5.5 3.52,-9.61 0,-0.27 0,-0.46 0,-0.61 0,-2.71 -2.2,-4.91 -4.91,-4.91l-2.46 0c-1.36,0 -2.46,-1.1 -2.46,-2.46 0,-0.34 -0.27,-0.61 -0.61,-0.61 -0.34,0 -0.61,0.27 -0.61,0.61 0,1.36 -1.1,2.46 -2.46,2.46 -2.03,0 -3.68,1.65 -3.68,3.68 0,0 0,1.58 0,1.84 0,4.13 1.54,7.48 3.54,9.64 -1.97,0.37 -3.76,0.88 -5.43,1.5 0.42,-1.6 0.66,-3.27 0.66,-4.99zm2.46 -7.98c0,-1.36 1.1,-2.46 2.46,-2.46 1.28,0 2.41,-0.66 3.07,-1.65 0.66,0.99 1.79,1.65 3.07,1.65l2.46 0c2.03,0 3.68,1.65 3.68,3.69 0,0.12 0,0.31 0,0.61 0,7.37 -4.59,11.05 -7.37,11.05 -2.78,0 -7.37,-3.68 -7.37,-11.05 0,-0.31 0,-1.84 0,-1.84zm3.49 12.55c1.28,1.01 2.65,1.57 3.88,1.57 1.23,0 2.6,-0.56 3.88,-1.57 1.68,0.23 3.32,0.63 4.89,1.14 -1.52,1.52 -8.18,8.18 -8.41,8.41 -0.26,0.26 -0.46,0.27 -0.73,0.01 -0.24,-0.24 -6.9,-6.9 -8.42,-8.42 1.58,-0.52 3.21,-0.91 4.89,-1.14zm22.31 12.63c0,0.68 -0.55,1.23 -1.23,1.23l-34.39 0c-0.68,0 -1.23,-0.55 -1.23,-1.23l0 -4.91c0,-0.68 0.27,-1.29 0.72,-1.74l-0 -0c2.28,-1.84 4.86,-3.32 7.65,-4.38l8.7 8.7c0.92,0.92 1.79,0.92 2.71,0l8.7 -8.7c2.79,1.06 5.37,2.54 7.65,4.38l-0 0c0.45,0.44 0.72,1.06 0.72,1.74l0 4.91z"/>
     <path class="fil2" d="M38.03 57.16c0.02,-0.03 0.18,-0.29 0.69,-0.29 0.5,0 0.67,0.27 0.68,0.28 0.11,0.21 0.32,0.33 0.55,0.33 0.09,0 0.19,-0.02 0.28,-0.07 0.3,-0.16 0.42,-0.53 0.26,-0.83 -0.18,-0.35 -0.76,-0.95 -1.77,-0.95 -1.04,0 -1.61,0.6 -1.78,0.96 -0.14,0.3 -0.02,0.64 0.27,0.8 0.29,0.16 0.66,0.04 0.83,-0.24z"/>
     <path class="fil2" d="M43.35 57.4c0.29,0.16 0.66,0.04 0.83,-0.24 0.02,-0.03 0.18,-0.29 0.69,-0.29 0.5,0 0.67,0.27 0.68,0.28 0.11,0.21 0.32,0.33 0.55,0.33 0.09,0 0.19,-0.02 0.28,-0.07 0.3,-0.16 0.42,-0.53 0.26,-0.83 -0.18,-0.35 -0.76,-0.95 -1.77,-0.95 -1.04,0 -1.61,0.6 -1.78,0.96 -0.14,0.3 -0.02,0.64 0.27,0.8z"/>
    </g>
    <g>
     <path class="fil2" d="M90.41 60.3l0.01 -0.01c-1.99,-1.62 -4.22,-2.99 -6.66,-4.08 -0.56,-1.76 -0.87,-3.64 -0.87,-5.59l0 -9.83c0,-5.43 -4.4,-9.83 -9.83,-9.83l-2.46 0c-5.43,0 -9.83,4.4 -9.83,9.83l0 9.83c0,1.95 -0.31,3.82 -0.87,5.59 -2.44,1.07 -4.62,2.43 -6.66,4.08l0.01 0.01c-0.67,0.67 -1.08,1.59 -1.08,2.61l0 4.91c0,1.36 1.1,2.46 2.46,2.46l34.39 0c1.36,0 2.46,-1.1 2.46,-2.46l0 -4.91c0,-1.02 -0.41,-1.94 -1.08,-2.61zm-28.4 -9.68l0 -9.83c0,-4.75 3.85,-8.6 8.6,-8.6l2.46 0c4.75,0 8.6,3.85 8.6,8.6l0 9.83c0,1.72 0.23,3.39 0.65,4.98 -1.7,-0.65 -3.51,-1.16 -5.4,-1.51 1.99,-2.16 3.52,-5.5 3.52,-9.61 0,-0.27 0,-0.46 0,-0.61 0,-2.71 -2.2,-4.91 -4.91,-4.91l-2.46 0c-1.36,0 -2.46,-1.1 -2.46,-2.46 0,-0.34 -0.27,-0.61 -0.61,-0.61 -0.34,0 -0.61,0.27 -0.61,0.61 0,1.36 -1.1,2.46 -2.46,2.46 -2.03,0 -3.68,1.65 -3.68,3.68 0,0 0,1.58 0,1.84 0,4.13 1.54,7.48 3.54,9.64 -1.97,0.37 -3.76,0.88 -5.43,1.5 0.42,-1.6 0.66,-3.27 0.66,-4.99zm2.46 -7.98c0,-1.36 1.1,-2.46 2.46,-2.46 1.28,0 2.41,-0.66 3.07,-1.65 0.66,0.99 1.79,1.65 3.07,1.65l2.46 0c2.03,0 3.68,1.65 3.68,3.69 0,0.12 0,0.31 0,0.61 0,7.37 -4.59,11.05 -7.37,11.05 -2.78,0 -7.37,-3.68 -7.37,-11.05 -0,-0.31 -0,-1.84 -0,-1.84zm3.49 12.55c1.28,1.01 2.65,1.57 3.88,1.57 1.23,0 2.6,-0.56 3.88,-1.57 1.68,0.23 3.32,0.63 4.89,1.14 -1.52,1.52 -8.18,8.18 -8.41,8.41 -0.26,0.26 -0.46,0.27 -0.73,0.01 -0.24,-0.24 -6.9,-6.9 -8.42,-8.42 1.58,-0.52 3.21,-0.91 4.89,-1.14zm22.31 12.63c0,0.68 -0.55,1.23 -1.23,1.23l-34.39 0c-0.68,0 -1.23,-0.55 -1.23,-1.23l0 -4.91c0,-0.68 0.27,-1.29 0.72,-1.74l-0 -0c2.28,-1.84 4.86,-3.32 7.65,-4.38l8.7 8.7c0.92,0.92 1.79,0.92 2.71,0l8.7 -8.7c2.79,1.06 5.37,2.54 7.65,4.38l-0 0c0.45,0.44 0.72,1.06 0.72,1.74l0 4.91z"/>
     <path class="fil2" d="M68.08 44.76c0.02,-0.03 0.18,-0.29 0.69,-0.29 0.5,0 0.67,0.27 0.68,0.28 0.11,0.21 0.32,0.33 0.55,0.33 0.09,0 0.19,-0.02 0.28,-0.07 0.3,-0.16 0.42,-0.53 0.26,-0.83 -0.18,-0.35 -0.76,-0.95 -1.77,-0.95 -1.04,0 -1.61,0.6 -1.78,0.96 -0.14,0.3 -0.02,0.64 0.27,0.8 0.29,0.16 0.66,0.04 0.83,-0.24z"/>
     <path class="fil2" d="M73.4 45.01c0.29,0.16 0.66,0.04 0.83,-0.24 0.02,-0.03 0.18,-0.29 0.69,-0.29 0.5,0 0.67,0.27 0.68,0.28 0.11,0.21 0.32,0.33 0.55,0.33 0.09,0 0.19,-0.02 0.28,-0.07 0.3,-0.16 0.42,-0.53 0.26,-0.83 -0.18,-0.35 -0.76,-0.95 -1.77,-0.95 -1.04,0 -1.61,0.6 -1.78,0.96 -0.14,0.3 -0.02,0.64 0.27,0.8z"/>
    </g>
   </g>
  </g>
 </g>
</svg>
